<mxfile host="app.diagrams.net" modified="2021-03-04T04:35:57.392Z" agent="5.0 (Windows NT 10.0; Win64; x64) AppleWebKit/537.36 (KHTML, like Gecko) Chrome/88.0.4324.190 Safari/537.36" etag="K8qvrg3DitsOptTKYYUZ" version="14.4.4" type="github">
  <diagram id="C5RBs43oDa-KdzZeNtuy" name="Page-1">
    <mxGraphModel dx="2557" dy="913" grid="1" gridSize="10" guides="1" tooltips="1" connect="1" arrows="1" fold="1" page="1" pageScale="1" pageWidth="827" pageHeight="1169" math="0" shadow="0">
      <root>
        <mxCell id="WIyWlLk6GJQsqaUBKTNV-0" />
        <mxCell id="WIyWlLk6GJQsqaUBKTNV-1" parent="WIyWlLk6GJQsqaUBKTNV-0" />
        <mxCell id="zkfFHV4jXpPFQw0GAbJ--0" value="Alarm" style="swimlane;fontStyle=0;align=center;verticalAlign=top;childLayout=stackLayout;horizontal=1;startSize=26;horizontalStack=0;resizeParent=1;resizeLast=0;collapsible=1;marginBottom=0;rounded=0;shadow=0;strokeWidth=1;" parent="WIyWlLk6GJQsqaUBKTNV-1" vertex="1">
          <mxGeometry x="-730" y="230" width="260" height="400" as="geometry">
            <mxRectangle x="230" y="140" width="160" height="26" as="alternateBounds" />
          </mxGeometry>
        </mxCell>
        <mxCell id="zkfFHV4jXpPFQw0GAbJ--1" value="-setTime: DateTime" style="text;align=left;verticalAlign=top;spacingLeft=4;spacingRight=4;overflow=hidden;rotatable=0;points=[[0,0.5],[1,0.5]];portConstraint=eastwest;" parent="zkfFHV4jXpPFQw0GAbJ--0" vertex="1">
          <mxGeometry y="26" width="260" height="26" as="geometry" />
        </mxCell>
        <mxCell id="zkfFHV4jXpPFQw0GAbJ--2" value="-status: string" style="text;align=left;verticalAlign=top;spacingLeft=4;spacingRight=4;overflow=hidden;rotatable=0;points=[[0,0.5],[1,0.5]];portConstraint=eastwest;rounded=0;shadow=0;html=0;" parent="zkfFHV4jXpPFQw0GAbJ--0" vertex="1">
          <mxGeometry y="52" width="260" height="26" as="geometry" />
        </mxCell>
        <mxCell id="zXAJbx80_tU9BFSZB9RZ-1" value="-timer: Timer" style="text;align=left;verticalAlign=top;spacingLeft=4;spacingRight=4;overflow=hidden;rotatable=0;points=[[0,0.5],[1,0.5]];portConstraint=eastwest;rounded=0;shadow=0;html=0;" parent="zkfFHV4jXpPFQw0GAbJ--0" vertex="1">
          <mxGeometry y="78" width="260" height="26" as="geometry" />
        </mxCell>
        <mxCell id="zXAJbx80_tU9BFSZB9RZ-2" value="-snoozeTimer: Timer" style="text;align=left;verticalAlign=top;spacingLeft=4;spacingRight=4;overflow=hidden;rotatable=0;points=[[0,0.5],[1,0.5]];portConstraint=eastwest;rounded=0;shadow=0;html=0;" parent="zkfFHV4jXpPFQw0GAbJ--0" vertex="1">
          <mxGeometry y="104" width="260" height="26" as="geometry" />
        </mxCell>
        <mxCell id="zXAJbx80_tU9BFSZB9RZ-3" value="-main: frmAlarm501" style="text;align=left;verticalAlign=top;spacingLeft=4;spacingRight=4;overflow=hidden;rotatable=0;points=[[0,0.5],[1,0.5]];portConstraint=eastwest;rounded=0;shadow=0;html=0;" parent="zkfFHV4jXpPFQw0GAbJ--0" vertex="1">
          <mxGeometry y="130" width="260" height="26" as="geometry" />
        </mxCell>
        <mxCell id="zXAJbx80_tU9BFSZB9RZ-4" value="+SetTime: DateTime &lt;&lt;get, set&gt;&gt;" style="text;align=left;verticalAlign=top;spacingLeft=4;spacingRight=4;overflow=hidden;rotatable=0;points=[[0,0.5],[1,0.5]];portConstraint=eastwest;" parent="zkfFHV4jXpPFQw0GAbJ--0" vertex="1">
          <mxGeometry y="156" width="260" height="26" as="geometry" />
        </mxCell>
        <mxCell id="zXAJbx80_tU9BFSZB9RZ-5" value="+Status: string &lt;&lt;get, set&gt;&gt;" style="text;align=left;verticalAlign=top;spacingLeft=4;spacingRight=4;overflow=hidden;rotatable=0;points=[[0,0.5],[1,0.5]];portConstraint=eastwest;" parent="zkfFHV4jXpPFQw0GAbJ--0" vertex="1">
          <mxGeometry y="182" width="260" height="26" as="geometry" />
        </mxCell>
        <mxCell id="zXAJbx80_tU9BFSZB9RZ-6" value="+Label: string &lt;&lt;get&gt;&gt;" style="text;align=left;verticalAlign=top;spacingLeft=4;spacingRight=4;overflow=hidden;rotatable=0;points=[[0,0.5],[1,0.5]];portConstraint=eastwest;" parent="zkfFHV4jXpPFQw0GAbJ--0" vertex="1">
          <mxGeometry y="208" width="260" height="26" as="geometry" />
        </mxCell>
        <mxCell id="zXAJbx80_tU9BFSZB9RZ-7" value="+PropertyChanged: &#xa;PropertyChangedEventHandler &lt;&lt;event&gt;&gt;" style="text;align=left;verticalAlign=top;spacingLeft=4;spacingRight=4;overflow=hidden;rotatable=0;points=[[0,0.5],[1,0.5]];portConstraint=eastwest;" parent="zkfFHV4jXpPFQw0GAbJ--0" vertex="1">
          <mxGeometry y="234" width="260" height="46" as="geometry" />
        </mxCell>
        <mxCell id="zXAJbx80_tU9BFSZB9RZ-10" value="+Alarm(DateTime, bool, MainAlarmForm)" style="text;align=left;verticalAlign=top;spacingLeft=4;spacingRight=4;overflow=hidden;rotatable=0;points=[[0,0.5],[1,0.5]];portConstraint=eastwest;movable=1;resizable=1;deletable=1;editable=1;connectable=1;" parent="zkfFHV4jXpPFQw0GAbJ--0" vertex="1">
          <mxGeometry y="280" width="260" height="30" as="geometry" />
        </mxCell>
        <mxCell id="zXAJbx80_tU9BFSZB9RZ-19" value="" style="endArrow=none;html=1;entryX=0.999;entryY=1.011;entryDx=0;entryDy=0;entryPerimeter=0;" parent="zkfFHV4jXpPFQw0GAbJ--0" target="zXAJbx80_tU9BFSZB9RZ-7" edge="1">
          <mxGeometry width="50" height="50" relative="1" as="geometry">
            <mxPoint x="-2" y="281" as="sourcePoint" />
            <mxPoint x="160" y="250" as="targetPoint" />
          </mxGeometry>
        </mxCell>
        <mxCell id="zXAJbx80_tU9BFSZB9RZ-20" value="+Snooze(): void" style="text;align=left;verticalAlign=top;spacingLeft=4;spacingRight=4;overflow=hidden;rotatable=0;points=[[0,0.5],[1,0.5]];portConstraint=eastwest;movable=1;resizable=1;deletable=1;editable=1;connectable=1;" parent="zkfFHV4jXpPFQw0GAbJ--0" vertex="1">
          <mxGeometry y="310" width="260" height="30" as="geometry" />
        </mxCell>
        <mxCell id="zXAJbx80_tU9BFSZB9RZ-21" value="+Stop(): void" style="text;align=left;verticalAlign=top;spacingLeft=4;spacingRight=4;overflow=hidden;rotatable=0;points=[[0,0.5],[1,0.5]];portConstraint=eastwest;movable=1;resizable=1;deletable=1;editable=1;connectable=1;" parent="zkfFHV4jXpPFQw0GAbJ--0" vertex="1">
          <mxGeometry y="340" width="260" height="30" as="geometry" />
        </mxCell>
        <mxCell id="zXAJbx80_tU9BFSZB9RZ-22" value="+TimerElapsed(object, EventArgs): void" style="text;align=left;verticalAlign=top;spacingLeft=4;spacingRight=4;overflow=hidden;rotatable=0;points=[[0,0.5],[1,0.5]];portConstraint=eastwest;movable=1;resizable=1;deletable=1;editable=1;connectable=1;" parent="zkfFHV4jXpPFQw0GAbJ--0" vertex="1">
          <mxGeometry y="370" width="260" height="30" as="geometry" />
        </mxCell>
        <mxCell id="zkfFHV4jXpPFQw0GAbJ--6" value="MainAlarmForm" style="swimlane;fontStyle=0;align=center;verticalAlign=top;childLayout=stackLayout;horizontal=1;startSize=26;horizontalStack=0;resizeParent=1;resizeLast=0;collapsible=1;marginBottom=0;rounded=0;shadow=0;strokeWidth=1;" parent="WIyWlLk6GJQsqaUBKTNV-1" vertex="1">
          <mxGeometry x="210" y="810" width="240" height="240" as="geometry">
            <mxRectangle x="130" y="380" width="160" height="26" as="alternateBounds" />
          </mxGeometry>
        </mxCell>
        <mxCell id="zkfFHV4jXpPFQw0GAbJ--7" value="+Alarms: BindingList&lt;Alarm&gt; &lt;&lt;get,set&gt;&gt;" style="text;align=left;verticalAlign=top;spacingLeft=4;spacingRight=4;overflow=hidden;rotatable=0;points=[[0,0.5],[1,0.5]];portConstraint=eastwest;" parent="zkfFHV4jXpPFQw0GAbJ--6" vertex="1">
          <mxGeometry y="26" width="240" height="24" as="geometry" />
        </mxCell>
        <mxCell id="zkfFHV4jXpPFQw0GAbJ--9" value="" style="line;html=1;strokeWidth=1;align=left;verticalAlign=middle;spacingTop=-1;spacingLeft=3;spacingRight=3;rotatable=0;labelPosition=right;points=[];portConstraint=eastwest;" parent="zkfFHV4jXpPFQw0GAbJ--6" vertex="1">
          <mxGeometry y="50" width="240" height="8" as="geometry" />
        </mxCell>
        <mxCell id="zXAJbx80_tU9BFSZB9RZ-33" value="+MainAlarmForm()" style="text;align=left;verticalAlign=top;spacingLeft=4;spacingRight=4;overflow=hidden;rotatable=0;points=[[0,0.5],[1,0.5]];portConstraint=eastwest;" parent="zkfFHV4jXpPFQw0GAbJ--6" vertex="1">
          <mxGeometry y="58" width="240" height="22" as="geometry" />
        </mxCell>
        <mxCell id="zXAJbx80_tU9BFSZB9RZ-34" value="+AddAlarm(object, EventArgs):void" style="text;align=left;verticalAlign=top;spacingLeft=4;spacingRight=4;overflow=hidden;rotatable=0;points=[[0,0.5],[1,0.5]];portConstraint=eastwest;" parent="zkfFHV4jXpPFQw0GAbJ--6" vertex="1">
          <mxGeometry y="80" width="240" height="22" as="geometry" />
        </mxCell>
        <mxCell id="zXAJbx80_tU9BFSZB9RZ-35" value="+EditAlarm(object, EventArgs):void" style="text;align=left;verticalAlign=top;spacingLeft=4;spacingRight=4;overflow=hidden;rotatable=0;points=[[0,0.5],[1,0.5]];portConstraint=eastwest;" parent="zkfFHV4jXpPFQw0GAbJ--6" vertex="1">
          <mxGeometry y="102" width="240" height="22" as="geometry" />
        </mxCell>
        <mxCell id="zXAJbx80_tU9BFSZB9RZ-36" value="+SnoozeAlarm(object, EventArgs):void" style="text;align=left;verticalAlign=top;spacingLeft=4;spacingRight=4;overflow=hidden;rotatable=0;points=[[0,0.5],[1,0.5]];portConstraint=eastwest;" parent="zkfFHV4jXpPFQw0GAbJ--6" vertex="1">
          <mxGeometry y="124" width="240" height="22" as="geometry" />
        </mxCell>
        <mxCell id="zXAJbx80_tU9BFSZB9RZ-37" value="+StopAlarm(object, EventArgs):void" style="text;align=left;verticalAlign=top;spacingLeft=4;spacingRight=4;overflow=hidden;rotatable=0;points=[[0,0.5],[1,0.5]];portConstraint=eastwest;" parent="zkfFHV4jXpPFQw0GAbJ--6" vertex="1">
          <mxGeometry y="146" width="240" height="22" as="geometry" />
        </mxCell>
        <mxCell id="zXAJbx80_tU9BFSZB9RZ-38" value="+AlarmClicked(object, EventArgs):void" style="text;align=left;verticalAlign=top;spacingLeft=4;spacingRight=4;overflow=hidden;rotatable=0;points=[[0,0.5],[1,0.5]];portConstraint=eastwest;" parent="zkfFHV4jXpPFQw0GAbJ--6" vertex="1">
          <mxGeometry y="168" width="240" height="22" as="geometry" />
        </mxCell>
        <mxCell id="zXAJbx80_tU9BFSZB9RZ-39" value="+ClosingTime(object, EventArgs):void" style="text;align=left;verticalAlign=top;spacingLeft=4;spacingRight=4;overflow=hidden;rotatable=0;points=[[0,0.5],[1,0.5]];portConstraint=eastwest;" parent="zkfFHV4jXpPFQw0GAbJ--6" vertex="1">
          <mxGeometry y="190" width="240" height="22" as="geometry" />
        </mxCell>
        <mxCell id="zXAJbx80_tU9BFSZB9RZ-40" value="+ReadAlarms():void" style="text;align=left;verticalAlign=top;spacingLeft=4;spacingRight=4;overflow=hidden;rotatable=0;points=[[0,0.5],[1,0.5]];portConstraint=eastwest;" parent="zkfFHV4jXpPFQw0GAbJ--6" vertex="1">
          <mxGeometry y="212" width="240" height="22" as="geometry" />
        </mxCell>
        <mxCell id="zkfFHV4jXpPFQw0GAbJ--13" value="AddEditAlarm" style="swimlane;fontStyle=0;align=center;verticalAlign=top;childLayout=stackLayout;horizontal=1;startSize=26;horizontalStack=0;resizeParent=1;resizeLast=0;collapsible=1;marginBottom=0;rounded=0;shadow=0;strokeWidth=1;" parent="WIyWlLk6GJQsqaUBKTNV-1" vertex="1">
          <mxGeometry x="180" y="380" width="250" height="232" as="geometry">
            <mxRectangle x="560" y="600" width="170" height="26" as="alternateBounds" />
          </mxGeometry>
        </mxCell>
        <mxCell id="zkfFHV4jXpPFQw0GAbJ--14" value="-alarm: Alarm" style="text;align=left;verticalAlign=top;spacingLeft=4;spacingRight=4;overflow=hidden;rotatable=0;points=[[0,0.5],[1,0.5]];portConstraint=eastwest;" parent="zkfFHV4jXpPFQw0GAbJ--13" vertex="1">
          <mxGeometry y="26" width="250" height="26" as="geometry" />
        </mxCell>
        <mxCell id="zXAJbx80_tU9BFSZB9RZ-23" value="-newAlarm: bool" style="text;align=left;verticalAlign=top;spacingLeft=4;spacingRight=4;overflow=hidden;rotatable=0;points=[[0,0.5],[1,0.5]];portConstraint=eastwest;" parent="zkfFHV4jXpPFQw0GAbJ--13" vertex="1">
          <mxGeometry y="52" width="250" height="26" as="geometry" />
        </mxCell>
        <mxCell id="zXAJbx80_tU9BFSZB9RZ-25" value="-index: int" style="text;align=left;verticalAlign=top;spacingLeft=4;spacingRight=4;overflow=hidden;rotatable=0;points=[[0,0.5],[1,0.5]];portConstraint=eastwest;" parent="zkfFHV4jXpPFQw0GAbJ--13" vertex="1">
          <mxGeometry y="78" width="250" height="26" as="geometry" />
        </mxCell>
        <mxCell id="zXAJbx80_tU9BFSZB9RZ-24" value="-main: MainAlarmForm" style="text;align=left;verticalAlign=top;spacingLeft=4;spacingRight=4;overflow=hidden;rotatable=0;points=[[0,0.5],[1,0.5]];portConstraint=eastwest;" parent="zkfFHV4jXpPFQw0GAbJ--13" vertex="1">
          <mxGeometry y="104" width="250" height="26" as="geometry" />
        </mxCell>
        <mxCell id="zXAJbx80_tU9BFSZB9RZ-26" value="+AddEditAlarm(MainAlarmForm)" style="text;align=left;verticalAlign=top;spacingLeft=4;spacingRight=4;overflow=hidden;rotatable=0;points=[[0,0.5],[1,0.5]];portConstraint=eastwest;" parent="zkfFHV4jXpPFQw0GAbJ--13" vertex="1">
          <mxGeometry y="130" width="250" height="24" as="geometry" />
        </mxCell>
        <mxCell id="zXAJbx80_tU9BFSZB9RZ-27" value="+AddEditAlarm(MainAlarmForm, Alarm, int)" style="text;align=left;verticalAlign=top;spacingLeft=4;spacingRight=4;overflow=hidden;rotatable=0;points=[[0,0.5],[1,0.5]];portConstraint=eastwest;" parent="zkfFHV4jXpPFQw0GAbJ--13" vertex="1">
          <mxGeometry y="154" width="250" height="26" as="geometry" />
        </mxCell>
        <mxCell id="zXAJbx80_tU9BFSZB9RZ-32" value="+SetAlarm(object, EventArgs): void" style="text;align=left;verticalAlign=top;spacingLeft=4;spacingRight=4;overflow=hidden;rotatable=0;points=[[0,0.5],[1,0.5]];portConstraint=eastwest;" parent="zkfFHV4jXpPFQw0GAbJ--13" vertex="1">
          <mxGeometry y="180" width="250" height="26" as="geometry" />
        </mxCell>
        <mxCell id="zXAJbx80_tU9BFSZB9RZ-28" value="+CancelAlarm(object, EventArgs): void" style="text;align=left;verticalAlign=top;spacingLeft=4;spacingRight=4;overflow=hidden;rotatable=0;points=[[0,0.5],[1,0.5]];portConstraint=eastwest;" parent="zkfFHV4jXpPFQw0GAbJ--13" vertex="1">
          <mxGeometry y="206" width="250" height="26" as="geometry" />
        </mxCell>
        <mxCell id="zXAJbx80_tU9BFSZB9RZ-31" value="" style="endArrow=none;html=1;exitX=0.001;exitY=-0.046;exitDx=0;exitDy=0;exitPerimeter=0;entryX=1.004;entryY=-0.046;entryDx=0;entryDy=0;entryPerimeter=0;" parent="zkfFHV4jXpPFQw0GAbJ--13" source="zXAJbx80_tU9BFSZB9RZ-26" target="zXAJbx80_tU9BFSZB9RZ-26" edge="1">
          <mxGeometry width="50" height="50" relative="1" as="geometry">
            <mxPoint x="-140" y="180" as="sourcePoint" />
            <mxPoint x="-90" y="130" as="targetPoint" />
          </mxGeometry>
        </mxCell>
        <mxCell id="_PikPOIy2BvtwKLMI2AE-0" value="Controller" style="swimlane;fontStyle=0;align=center;verticalAlign=top;childLayout=stackLayout;horizontal=1;startSize=26;horizontalStack=0;resizeParent=1;resizeLast=0;collapsible=1;marginBottom=0;rounded=0;shadow=0;strokeWidth=1;" parent="WIyWlLk6GJQsqaUBKTNV-1" vertex="1">
          <mxGeometry x="-280" y="700" width="240" height="240" as="geometry">
            <mxRectangle x="130" y="380" width="160" height="26" as="alternateBounds" />
          </mxGeometry>
        </mxCell>
        <mxCell id="_PikPOIy2BvtwKLMI2AE-1" value="+Alarms: BindingList&lt;Alarm&gt; &lt;&lt;get,set&gt;&gt;" style="text;align=left;verticalAlign=top;spacingLeft=4;spacingRight=4;overflow=hidden;rotatable=0;points=[[0,0.5],[1,0.5]];portConstraint=eastwest;" parent="_PikPOIy2BvtwKLMI2AE-0" vertex="1">
          <mxGeometry y="26" width="240" height="24" as="geometry" />
        </mxCell>
        <mxCell id="_PikPOIy2BvtwKLMI2AE-2" value="" style="line;html=1;strokeWidth=1;align=left;verticalAlign=middle;spacingTop=-1;spacingLeft=3;spacingRight=3;rotatable=0;labelPosition=right;points=[];portConstraint=eastwest;" parent="_PikPOIy2BvtwKLMI2AE-0" vertex="1">
          <mxGeometry y="50" width="240" height="8" as="geometry" />
        </mxCell>
        <mxCell id="_PikPOIy2BvtwKLMI2AE-3" value="+AddAlarm(object, EventArgs):void" style="text;align=left;verticalAlign=top;spacingLeft=4;spacingRight=4;overflow=hidden;rotatable=0;points=[[0,0.5],[1,0.5]];portConstraint=eastwest;" parent="_PikPOIy2BvtwKLMI2AE-0" vertex="1">
          <mxGeometry y="58" width="240" height="22" as="geometry" />
        </mxCell>
        <mxCell id="_PikPOIy2BvtwKLMI2AE-4" value="+EditAlarm(object, EventArgs):void" style="text;align=left;verticalAlign=top;spacingLeft=4;spacingRight=4;overflow=hidden;rotatable=0;points=[[0,0.5],[1,0.5]];portConstraint=eastwest;" parent="_PikPOIy2BvtwKLMI2AE-0" vertex="1">
          <mxGeometry y="80" width="240" height="22" as="geometry" />
        </mxCell>
        <mxCell id="_PikPOIy2BvtwKLMI2AE-5" value="+SnoozeAlarm(object, EventArgs):void" style="text;align=left;verticalAlign=top;spacingLeft=4;spacingRight=4;overflow=hidden;rotatable=0;points=[[0,0.5],[1,0.5]];portConstraint=eastwest;" parent="_PikPOIy2BvtwKLMI2AE-0" vertex="1">
          <mxGeometry y="102" width="240" height="22" as="geometry" />
        </mxCell>
        <mxCell id="_PikPOIy2BvtwKLMI2AE-6" value="+StopAlarm(object, EventArgs):void" style="text;align=left;verticalAlign=top;spacingLeft=4;spacingRight=4;overflow=hidden;rotatable=0;points=[[0,0.5],[1,0.5]];portConstraint=eastwest;" parent="_PikPOIy2BvtwKLMI2AE-0" vertex="1">
          <mxGeometry y="124" width="240" height="22" as="geometry" />
        </mxCell>
        <mxCell id="_PikPOIy2BvtwKLMI2AE-7" value="+AlarmClicked(object, EventArgs):void" style="text;align=left;verticalAlign=top;spacingLeft=4;spacingRight=4;overflow=hidden;rotatable=0;points=[[0,0.5],[1,0.5]];portConstraint=eastwest;" parent="_PikPOIy2BvtwKLMI2AE-0" vertex="1">
          <mxGeometry y="146" width="240" height="22" as="geometry" />
        </mxCell>
        <mxCell id="_PikPOIy2BvtwKLMI2AE-8" value="+ClosingTime(object, EventArgs):void" style="text;align=left;verticalAlign=top;spacingLeft=4;spacingRight=4;overflow=hidden;rotatable=0;points=[[0,0.5],[1,0.5]];portConstraint=eastwest;" parent="_PikPOIy2BvtwKLMI2AE-0" vertex="1">
          <mxGeometry y="168" width="240" height="22" as="geometry" />
        </mxCell>
        <mxCell id="_PikPOIy2BvtwKLMI2AE-9" value="+ReadAlarms():void" style="text;align=left;verticalAlign=top;spacingLeft=4;spacingRight=4;overflow=hidden;rotatable=0;points=[[0,0.5],[1,0.5]];portConstraint=eastwest;" parent="_PikPOIy2BvtwKLMI2AE-0" vertex="1">
          <mxGeometry y="190" width="240" height="22" as="geometry" />
        </mxCell>
        <mxCell id="_PikPOIy2BvtwKLMI2AE-10" value="AlarmList" style="swimlane;fontStyle=0;align=center;verticalAlign=top;childLayout=stackLayout;horizontal=1;startSize=26;horizontalStack=0;resizeParent=1;resizeLast=0;collapsible=1;marginBottom=0;rounded=0;shadow=0;strokeWidth=1;" parent="WIyWlLk6GJQsqaUBKTNV-1" vertex="1">
          <mxGeometry x="-720" y="690" width="240" height="240" as="geometry">
            <mxRectangle x="130" y="380" width="160" height="26" as="alternateBounds" />
          </mxGeometry>
        </mxCell>
        <mxCell id="_PikPOIy2BvtwKLMI2AE-11" value="+Alarms: BindingList&lt;Alarm&gt; &lt;&lt;get,set&gt;&gt;" style="text;align=left;verticalAlign=top;spacingLeft=4;spacingRight=4;overflow=hidden;rotatable=0;points=[[0,0.5],[1,0.5]];portConstraint=eastwest;" parent="_PikPOIy2BvtwKLMI2AE-10" vertex="1">
          <mxGeometry y="26" width="240" height="24" as="geometry" />
        </mxCell>
        <mxCell id="_PikPOIy2BvtwKLMI2AE-12" value="" style="line;html=1;strokeWidth=1;align=left;verticalAlign=middle;spacingTop=-1;spacingLeft=3;spacingRight=3;rotatable=0;labelPosition=right;points=[];portConstraint=eastwest;" parent="_PikPOIy2BvtwKLMI2AE-10" vertex="1">
          <mxGeometry y="50" width="240" height="8" as="geometry" />
        </mxCell>
        <mxCell id="_PikPOIy2BvtwKLMI2AE-13" value="+AddAlarm(object, EventArgs):void" style="text;align=left;verticalAlign=top;spacingLeft=4;spacingRight=4;overflow=hidden;rotatable=0;points=[[0,0.5],[1,0.5]];portConstraint=eastwest;" parent="_PikPOIy2BvtwKLMI2AE-10" vertex="1">
          <mxGeometry y="58" width="240" height="22" as="geometry" />
        </mxCell>
        <mxCell id="_PikPOIy2BvtwKLMI2AE-14" value="+EditAlarm(object, EventArgs):void" style="text;align=left;verticalAlign=top;spacingLeft=4;spacingRight=4;overflow=hidden;rotatable=0;points=[[0,0.5],[1,0.5]];portConstraint=eastwest;" parent="_PikPOIy2BvtwKLMI2AE-10" vertex="1">
          <mxGeometry y="80" width="240" height="22" as="geometry" />
        </mxCell>
        <mxCell id="_PikPOIy2BvtwKLMI2AE-15" value="+SnoozeAlarm(object, EventArgs):void" style="text;align=left;verticalAlign=top;spacingLeft=4;spacingRight=4;overflow=hidden;rotatable=0;points=[[0,0.5],[1,0.5]];portConstraint=eastwest;" parent="_PikPOIy2BvtwKLMI2AE-10" vertex="1">
          <mxGeometry y="102" width="240" height="22" as="geometry" />
        </mxCell>
        <mxCell id="_PikPOIy2BvtwKLMI2AE-16" value="+StopAlarm(object, EventArgs):void" style="text;align=left;verticalAlign=top;spacingLeft=4;spacingRight=4;overflow=hidden;rotatable=0;points=[[0,0.5],[1,0.5]];portConstraint=eastwest;" parent="_PikPOIy2BvtwKLMI2AE-10" vertex="1">
          <mxGeometry y="124" width="240" height="22" as="geometry" />
        </mxCell>
        <mxCell id="_PikPOIy2BvtwKLMI2AE-17" value="+AlarmClicked(object, EventArgs):void" style="text;align=left;verticalAlign=top;spacingLeft=4;spacingRight=4;overflow=hidden;rotatable=0;points=[[0,0.5],[1,0.5]];portConstraint=eastwest;" parent="_PikPOIy2BvtwKLMI2AE-10" vertex="1">
          <mxGeometry y="146" width="240" height="22" as="geometry" />
        </mxCell>
        <mxCell id="_PikPOIy2BvtwKLMI2AE-18" value="+ClosingTime(object, EventArgs):void" style="text;align=left;verticalAlign=top;spacingLeft=4;spacingRight=4;overflow=hidden;rotatable=0;points=[[0,0.5],[1,0.5]];portConstraint=eastwest;" parent="_PikPOIy2BvtwKLMI2AE-10" vertex="1">
          <mxGeometry y="168" width="240" height="22" as="geometry" />
        </mxCell>
        <mxCell id="_PikPOIy2BvtwKLMI2AE-19" value="+ReadAlarms():void" style="text;align=left;verticalAlign=top;spacingLeft=4;spacingRight=4;overflow=hidden;rotatable=0;points=[[0,0.5],[1,0.5]];portConstraint=eastwest;" parent="_PikPOIy2BvtwKLMI2AE-10" vertex="1">
          <mxGeometry y="190" width="240" height="22" as="geometry" />
        </mxCell>
        <mxCell id="RjdG4E7rIL5B_RaQv0Dg-1" value="&lt;&lt;interface&gt;&gt;&#xa;Observer" style="swimlane;fontStyle=0;align=center;verticalAlign=top;childLayout=stackLayout;horizontal=1;startSize=40;horizontalStack=0;resizeParent=1;resizeLast=0;collapsible=1;marginBottom=0;rounded=0;shadow=0;strokeWidth=1;" vertex="1" parent="WIyWlLk6GJQsqaUBKTNV-1">
          <mxGeometry x="-413" y="160" width="253" height="90" as="geometry">
            <mxRectangle x="130" y="380" width="160" height="26" as="alternateBounds" />
          </mxGeometry>
        </mxCell>
        <mxCell id="RjdG4E7rIL5B_RaQv0Dg-2" value="" style="line;html=1;strokeWidth=1;align=left;verticalAlign=middle;spacingTop=-1;spacingLeft=3;spacingRight=3;rotatable=0;labelPosition=right;points=[];portConstraint=eastwest;" vertex="1" parent="RjdG4E7rIL5B_RaQv0Dg-1">
          <mxGeometry y="40" width="253" height="8" as="geometry" />
        </mxCell>
        <mxCell id="RjdG4E7rIL5B_RaQv0Dg-3" value="+ShowAlarm(bool, DateTime, bool, int): void" style="text;align=left;verticalAlign=top;spacingLeft=4;spacingRight=4;overflow=hidden;rotatable=0;points=[[0,0.5],[1,0.5]];portConstraint=eastwest;" vertex="1" parent="RjdG4E7rIL5B_RaQv0Dg-1">
          <mxGeometry y="48" width="253" height="22" as="geometry" />
        </mxCell>
        <mxCell id="RjdG4E7rIL5B_RaQv0Dg-4" value="&lt;&lt;interface&gt;&gt;&#xa;ControllerRinger" style="swimlane;fontStyle=0;align=center;verticalAlign=top;childLayout=stackLayout;horizontal=1;startSize=40;horizontalStack=0;resizeParent=1;resizeLast=0;collapsible=1;marginBottom=0;rounded=0;shadow=0;strokeWidth=1;" vertex="1" parent="WIyWlLk6GJQsqaUBKTNV-1">
          <mxGeometry x="-430" y="660" width="110" height="90" as="geometry">
            <mxRectangle x="130" y="380" width="160" height="26" as="alternateBounds" />
          </mxGeometry>
        </mxCell>
        <mxCell id="RjdG4E7rIL5B_RaQv0Dg-5" value="" style="line;html=1;strokeWidth=1;align=left;verticalAlign=middle;spacingTop=-1;spacingLeft=3;spacingRight=3;rotatable=0;labelPosition=right;points=[];portConstraint=eastwest;" vertex="1" parent="RjdG4E7rIL5B_RaQv0Dg-4">
          <mxGeometry y="40" width="110" height="8" as="geometry" />
        </mxCell>
        <mxCell id="RjdG4E7rIL5B_RaQv0Dg-6" value="+Ringing(): void" style="text;align=left;verticalAlign=top;spacingLeft=4;spacingRight=4;overflow=hidden;rotatable=0;points=[[0,0.5],[1,0.5]];portConstraint=eastwest;" vertex="1" parent="RjdG4E7rIL5B_RaQv0Dg-4">
          <mxGeometry y="48" width="110" height="22" as="geometry" />
        </mxCell>
        <mxCell id="RjdG4E7rIL5B_RaQv0Dg-7" value="&lt;&lt;interface&gt;&gt;&#xa;MainInputHandler" style="swimlane;fontStyle=0;align=center;verticalAlign=top;childLayout=stackLayout;horizontal=1;startSize=40;horizontalStack=0;resizeParent=1;resizeLast=0;collapsible=1;marginBottom=0;rounded=0;shadow=0;strokeWidth=1;" vertex="1" parent="WIyWlLk6GJQsqaUBKTNV-1">
          <mxGeometry x="-280" y="350" width="190" height="90" as="geometry">
            <mxRectangle x="130" y="380" width="160" height="26" as="alternateBounds" />
          </mxGeometry>
        </mxCell>
        <mxCell id="RjdG4E7rIL5B_RaQv0Dg-8" value="" style="line;html=1;strokeWidth=1;align=left;verticalAlign=middle;spacingTop=-1;spacingLeft=3;spacingRight=3;rotatable=0;labelPosition=right;points=[];portConstraint=eastwest;" vertex="1" parent="RjdG4E7rIL5B_RaQv0Dg-7">
          <mxGeometry y="40" width="190" height="8" as="geometry" />
        </mxCell>
        <mxCell id="RjdG4E7rIL5B_RaQv0Dg-9" value="+MainHandle(string, int): void" style="text;align=left;verticalAlign=top;spacingLeft=4;spacingRight=4;overflow=hidden;rotatable=0;points=[[0,0.5],[1,0.5]];portConstraint=eastwest;" vertex="1" parent="RjdG4E7rIL5B_RaQv0Dg-7">
          <mxGeometry y="48" width="190" height="22" as="geometry" />
        </mxCell>
        <mxCell id="RjdG4E7rIL5B_RaQv0Dg-10" value="&lt;&lt;interface&gt;&gt;&#xa;AddEditInputHandler" style="swimlane;fontStyle=0;align=center;verticalAlign=top;childLayout=stackLayout;horizontal=1;startSize=40;horizontalStack=0;resizeParent=1;resizeLast=0;collapsible=1;marginBottom=0;rounded=0;shadow=0;strokeWidth=1;" vertex="1" parent="WIyWlLk6GJQsqaUBKTNV-1">
          <mxGeometry x="-160" y="495" width="280" height="90" as="geometry">
            <mxRectangle x="130" y="380" width="160" height="26" as="alternateBounds" />
          </mxGeometry>
        </mxCell>
        <mxCell id="RjdG4E7rIL5B_RaQv0Dg-11" value="" style="line;html=1;strokeWidth=1;align=left;verticalAlign=middle;spacingTop=-1;spacingLeft=3;spacingRight=3;rotatable=0;labelPosition=right;points=[];portConstraint=eastwest;" vertex="1" parent="RjdG4E7rIL5B_RaQv0Dg-10">
          <mxGeometry y="40" width="280" height="8" as="geometry" />
        </mxCell>
        <mxCell id="RjdG4E7rIL5B_RaQv0Dg-12" value="+AddEditHandle(string, DateTime, int, bool): void" style="text;align=left;verticalAlign=top;spacingLeft=4;spacingRight=4;overflow=hidden;rotatable=0;points=[[0,0.5],[1,0.5]];portConstraint=eastwest;" vertex="1" parent="RjdG4E7rIL5B_RaQv0Dg-10">
          <mxGeometry y="48" width="280" height="22" as="geometry" />
        </mxCell>
        <mxCell id="RjdG4E7rIL5B_RaQv0Dg-13" value="&lt;&lt;interface&gt;&gt;&#xa;OutputRinger" style="swimlane;fontStyle=0;align=center;verticalAlign=top;childLayout=stackLayout;horizontal=1;startSize=40;horizontalStack=0;resizeParent=1;resizeLast=0;collapsible=1;marginBottom=0;rounded=0;shadow=0;strokeWidth=1;" vertex="1" parent="WIyWlLk6GJQsqaUBKTNV-1">
          <mxGeometry x="20" y="1000" width="110" height="90" as="geometry">
            <mxRectangle x="130" y="380" width="160" height="26" as="alternateBounds" />
          </mxGeometry>
        </mxCell>
        <mxCell id="RjdG4E7rIL5B_RaQv0Dg-14" value="" style="line;html=1;strokeWidth=1;align=left;verticalAlign=middle;spacingTop=-1;spacingLeft=3;spacingRight=3;rotatable=0;labelPosition=right;points=[];portConstraint=eastwest;" vertex="1" parent="RjdG4E7rIL5B_RaQv0Dg-13">
          <mxGeometry y="40" width="110" height="8" as="geometry" />
        </mxCell>
        <mxCell id="RjdG4E7rIL5B_RaQv0Dg-15" value="+Ringing(): void" style="text;align=left;verticalAlign=top;spacingLeft=4;spacingRight=4;overflow=hidden;rotatable=0;points=[[0,0.5],[1,0.5]];portConstraint=eastwest;" vertex="1" parent="RjdG4E7rIL5B_RaQv0Dg-13">
          <mxGeometry y="48" width="110" height="22" as="geometry" />
        </mxCell>
        <mxCell id="RjdG4E7rIL5B_RaQv0Dg-16" value="&lt;&lt;interface&gt;&gt;&#xa;Stopper" style="swimlane;fontStyle=0;align=center;verticalAlign=top;childLayout=stackLayout;horizontal=1;startSize=40;horizontalStack=0;resizeParent=1;resizeLast=0;collapsible=1;marginBottom=0;rounded=0;shadow=0;strokeWidth=1;" vertex="1" parent="WIyWlLk6GJQsqaUBKTNV-1">
          <mxGeometry x="10" y="720" width="130" height="90" as="geometry">
            <mxRectangle x="130" y="380" width="160" height="26" as="alternateBounds" />
          </mxGeometry>
        </mxCell>
        <mxCell id="RjdG4E7rIL5B_RaQv0Dg-17" value="" style="line;html=1;strokeWidth=1;align=left;verticalAlign=middle;spacingTop=-1;spacingLeft=3;spacingRight=3;rotatable=0;labelPosition=right;points=[];portConstraint=eastwest;" vertex="1" parent="RjdG4E7rIL5B_RaQv0Dg-16">
          <mxGeometry y="40" width="130" height="8" as="geometry" />
        </mxCell>
        <mxCell id="RjdG4E7rIL5B_RaQv0Dg-18" value="+StopRinging(): void" style="text;align=left;verticalAlign=top;spacingLeft=4;spacingRight=4;overflow=hidden;rotatable=0;points=[[0,0.5],[1,0.5]];portConstraint=eastwest;" vertex="1" parent="RjdG4E7rIL5B_RaQv0Dg-16">
          <mxGeometry y="48" width="130" height="22" as="geometry" />
        </mxCell>
        <mxCell id="RjdG4E7rIL5B_RaQv0Dg-19" value="&lt;&lt;interface&gt;&gt;&#xa;Writer" style="swimlane;fontStyle=0;align=center;verticalAlign=top;childLayout=stackLayout;horizontal=1;startSize=40;horizontalStack=0;resizeParent=1;resizeLast=0;collapsible=1;marginBottom=0;rounded=0;shadow=0;strokeWidth=1;" vertex="1" parent="WIyWlLk6GJQsqaUBKTNV-1">
          <mxGeometry x="20" y="860" width="110" height="80" as="geometry">
            <mxRectangle x="130" y="380" width="160" height="26" as="alternateBounds" />
          </mxGeometry>
        </mxCell>
        <mxCell id="RjdG4E7rIL5B_RaQv0Dg-20" value="" style="line;html=1;strokeWidth=1;align=left;verticalAlign=middle;spacingTop=-1;spacingLeft=3;spacingRight=3;rotatable=0;labelPosition=right;points=[];portConstraint=eastwest;" vertex="1" parent="RjdG4E7rIL5B_RaQv0Dg-19">
          <mxGeometry y="40" width="110" height="8" as="geometry" />
        </mxCell>
        <mxCell id="RjdG4E7rIL5B_RaQv0Dg-21" value="+Write(): void" style="text;align=left;verticalAlign=top;spacingLeft=4;spacingRight=4;overflow=hidden;rotatable=0;points=[[0,0.5],[1,0.5]];portConstraint=eastwest;" vertex="1" parent="RjdG4E7rIL5B_RaQv0Dg-19">
          <mxGeometry y="48" width="110" height="22" as="geometry" />
        </mxCell>
      </root>
    </mxGraphModel>
  </diagram>
</mxfile>
